# File created by Blade
# Date/Time:  Thu Sep 25 15:55:53 2014
# Frame Rate: 120.000 fps
#------------------------------------------------------
:FULLY-SPECIFIED
:DEGREES
534
root -4.599890 33.149253 0.959792 11.974301 -9.682475 8.442773
Spine -8.142549 11.701337 3.942865
Head -18.550454 -2.317812 0.255248
LeftShoulder -9.511872 27.956623 5.718096
LeftArm 19.313842 26.090084 -71.933589
LeftForeArm 4.433024 -0.000000 27.467288
LeftHand -23.708044 -0.000000 7.028895
LeftHandThumb1 -26.253704 0.000000 33.147579
RightShoulder -12.400477 7.534857 -29.720250
RightArm -13.497225 -16.595100 82.996266
RightForeArm -22.948221 0.000000 36.842998
RightHand -1.649190 -0.000000 1.408983
RightHandThumb1 -24.326973 -0.000000 -32.862282
LeftUpLeg -17.761065 7.115879 -5.778329
LeftLeg 12.402578 -0.000000 -0.000000
LeftFoot -5.487526 7.056714 -28.554854
LeftToeBase -0.681074 -0.000000 0.000000
RightUpLeg -17.718583 -3.190303 -2.716199
RightLeg 15.602614 -0.000000 -0.000000
RightFoot -17.046444 1.111462 -0.633277
RightToeBase -4.280443 -0.000000 0.000000
535
root -4.600404 33.130767 1.003327 11.865198 -9.968517 8.215100
Spine -8.107656 11.864991 3.982901
Head -18.351515 -2.287128 0.461855
LeftShoulder -9.668100 28.112491 5.766729
LeftArm 19.180890 26.674869 -71.978397
LeftForeArm 3.911565 -0.000000 26.953372
LeftHand -23.809455 -0.000000 7.359567
LeftHandThumb1 -26.253704 0.000000 33.147579
RightShoulder -12.400528 7.524204 -29.556409
RightArm -13.570029 -16.592913 82.703746
RightForeArm -22.929674 -0.000000 36.908364
RightHand -1.596438 -0.000000 1.275144
RightHandThumb1 -24.326973 -0.000000 -32.862282
LeftUpLeg -17.625343 7.110636 -5.668183
LeftLeg 12.536952 -0.000000 -0.000000
LeftFoot -6.025567 7.929483 -27.793590
LeftToeBase -0.891057 -0.000000 0.000000
RightUpLeg -17.524151 -2.947817 -2.536187
RightLeg 15.583108 -0.000000 -0.000000
RightFoot -17.102179 1.050787 -0.894902
RightToeBase -4.199164 -0.000000 0.000000
536
root -4.595490 33.115197 1.048812 11.780311 -10.196819 8.010391
Spine -8.104449 11.999509 4.015512
Head -18.179275 -2.353659 0.688593
LeftShoulder -9.764801 28.202199 5.835667
LeftArm 18.895290 27.141144 -72.142366
LeftForeArm 3.600806 -0.000000 26.518492
LeftHand -23.864668 -0.000000 6.980998
LeftHandThumb1 -26.253704 0.000000 33.147579
RightShoulder -12.469784 7.377211 -29.380536
RightArm -13.491091 -16.619330 82.353433
RightForeArm -22.968359 -0.000000 36.966778
RightHand -1.562661 -0.000000 1.343014
RightHandThumb1 -24.326973 -0.000000 -32.862282
LeftUpLeg -17.492893 7.020965 -5.570064
LeftLeg 12.554787 -0.000000 -0.000000
LeftFoot -6.619061 8.725662 -27.367275
LeftToeBase 0.194199 -0.000000 -0.000000
RightUpLeg -17.336694 -2.795689 -2.387081
RightLeg 15.547772 -0.000000 -0.000000
RightFoot -17.175638 1.103064 -1.040375
RightToeBase -4.184608 -0.000000 0.000000
537
root -4.595160 33.099265 1.093472 11.674479 -10.431802 7.790347
Spine -8.057891 12.162106 4.055052
Head -17.980386 -2.423423 0.921980
LeftShoulder -9.818488 28.304242 5.938873
LeftArm 18.615586 27.531351 -72.347634
LeftForeArm 3.286382 -0.000000 26.085844
LeftHand -23.807778 -0.000000 6.933115
LeftHandThumb1 -26.253704 0.000000 33.147579
RightShoulder -12.535221 7.330181 -29.210347
RightArm -13.515993 -16.649882 82.031706
RightForeArm -22.849185 -0.000000 36.985650
RightHand -1.412487 -0.000000 1.167632
RightHandThumb1 -24.326973 -0.000000 -32.862282
LeftUpLeg -17.330901 6.953097 -5.460593
LeftLeg 12.507941 -0.000000 -0.000000
LeftFoot -7.024356 9.591281 -26.881070
LeftToeBase 0.719351 -0.000000 -0.000000
RightUpLeg -17.220536 -2.803512 -2.191766
RightLeg 15.698636 -0.000000 -0.000000
RightFoot -17.277172 1.346335 -1.195888
RightToeBase -4.248072 -0.000000 0.000000
538
root -4.595810 33.083790 1.139163 11.580523 -10.640552 7.566505
Spine -8.023517 12.300905 4.093766
Head -17.797607 -2.519140 1.161384
LeftShoulder -9.930285 28.499708 6.035257
LeftArm 18.464455 27.904060 -72.523021
LeftForeArm 3.034751 0.000000 25.644483
LeftHand -23.889166 -0.000000 6.642059
LeftHandThumb1 -26.253704 0.000000 33.147579
RightShoulder -12.582941 7.273713 -29.032668
RightArm -13.561092 -16.533992 81.704834
RightForeArm -22.803193 -0.000000 37.072712
RightHand -1.349361 -0.000000 1.236642
RightHandThumb1 -24.326973 -0.000000 -32.862282
LeftUpLeg -17.162933 6.826560 -5.327411
LeftLeg 12.450679 -0.000000 -0.000000
LeftFoot -7.483514 10.393976 -26.486786
LeftToeBase 0.919239 -0.000000 -0.000000
RightUpLeg -17.019111 -2.545011 -2.039557
RightLeg 15.680324 -0.000000 -0.000000
RightFoot -17.410147 1.281521 -1.398140
RightToeBase -4.007640 -0.000000 0.000000
539
root -4.594930 33.067314 1.188258 11.456215 -10.805062 7.388666
Spine -7.961141 12.420422 4.079316
Head -17.623941 -2.585184 1.410319
LeftShoulder -9.979197 28.609856 6.209509
LeftArm 18.192326 28.276500 -72.778790
LeftForeArm 2.755973 -0.000000 25.245682
LeftHand -23.895895 -0.000000 6.107629
LeftHandThumb1 -26.253704 0.000000 33.147579
RightShoulder -12.689570 7.150137 -28.854512
RightArm -13.527571 -16.454044 81.408919
RightForeArm -22.861097 -0.000000 37.120799
RightHand -1.365229 -0.000000 1.237210
RightHandThumb1 -24.326973 -0.000000 -32.862282
LeftUpLeg -16.977391 6.714514 -5.242838
LeftLeg 12.424390 -0.000000 -0.000000
LeftFoot -8.021032 11.127722 -26.449992
LeftToeBase 1.189484 -0.000000 -0.000000
RightUpLeg -16.900194 -2.627905 -1.878042
RightLeg 15.899562 -0.000000 -0.000000
RightFoot -17.585544 1.566959 -1.737700
RightToeBase -3.901021 -0.000000 0.000000
540
root -4.593647 33.051755 1.232329 11.314313 -10.938716 7.219980
Spine -7.856460 12.456562 4.080698
Head -17.439993 -2.625951 1.656992
LeftShoulder -10.044656 28.738392 6.372645
LeftArm 17.920575 28.509354 -73.099952
LeftForeArm 2.496797 -0.000000 24.813406
LeftHand -23.796254 -0.000000 5.869766
LeftHandThumb1 -26.253704 0.000000 33.147579
RightShoulder -12.690260 7.168638 -28.703140
RightArm -13.643765 -16.296814 81.163295
RightForeArm -22.994148 -0.000000 37.186402
RightHand -1.404844 -0.000000 1.126920
RightHandThumb1 -24.326973 -0.000000 -32.862282
LeftUpLeg -16.807982 6.582417 -5.145665
LeftLeg 12.491831 -0.000000 -0.000000
LeftFoot -8.629886 11.846948 -26.490905
LeftToeBase 1.628358 -0.000000 -0.000000
RightUpLeg -16.777713 -2.706827 -1.723550
RightLeg 16.124762 -0.000000 -0.000000
RightFoot -17.677110 1.859064 -2.054622
RightToeBase -4.036964 -0.000000 0.000000
541
root -4.594424 33.037523 1.277442 11.219667 -11.045807 7.045401
Spine -7.812519 12.495576 4.070109
Head -17.220952 -2.720761 1.898717
LeftShoulder -10.132015 28.927461 6.543111
LeftArm 17.709684 28.729364 -73.396290
LeftForeArm 2.184965 -0.000000 24.392392
LeftHand -23.831758 -0.000000 5.352036
LeftHandThumb1 -26.253704 0.000000 33.147579
RightShoulder -12.748768 7.107845 -28.519567
RightArm -13.672072 -16.220958 80.881068
RightForeArm -23.155534 -0.000000 37.246662
RightHand -1.617178 -0.000000 0.647708
RightHandThumb1 -24.326973 -0.000000 -32.862282
LeftUpLeg -16.651343 6.509503 -5.034760
LeftLeg 12.525824 -0.000000 -0.000000
LeftFoot -9.148097 12.426127 -26.558079
LeftToeBase 1.911905 -0.000000 -0.000000
RightUpLeg -16.642272 -2.675338 -1.579560
RightLeg 16.243368 -0.000000 -0.000000
RightFoot -17.741050 2.052590 -2.338420
RightToeBase -4.081408 -0.000000 0.000000
542
root -4.609931 33.022134 1.322122 11.123523 -11.096575 6.840071
Spine -7.764251 12.524115 4.056769
Head -17.030844 -2.860439 2.180569
LeftShoulder -10.092344 28.953140 6.791885
LeftArm 17.258948 28.937669 -73.759374
LeftForeArm 1.778075 0.000000 24.051221
LeftHand -23.869215 -0.000000 4.985351
LeftHandThumb1 -26.253704 0.000000 33.147579
RightShoulder -12.846790 7.031233 -28.343181
RightArm -13.741433 -16.041721 80.661933
RightForeArm -23.130748 -0.000000 37.322514
RightHand -1.452727 -0.000000 0.719817
RightHandThumb1 -24.326973 -0.000000 -32.862282
LeftUpLeg -16.605491 6.484829 -4.898884
LeftLeg 12.839672 -0.000000 -0.000000
LeftFoot -9.764746 12.954457 -26.450209
LeftToeBase 2.383798 -0.000000 -0.000000
RightUpLeg -16.542997 -2.829568 -1.334051
RightLeg 16.461049 -0.000000 -0.000000
RightFoot -17.761167 2.337281 -2.796788
RightToeBase -4.244283 -0.000000 0.000000
543
root -4.623644 33.007752 1.368306 11.042851 -11.156253 6.672694
Spine -7.740409 12.539514 3.975790
Head -16.800531 -2.947132 2.465259
LeftShoulder -10.127622 29.072992 7.013418
LeftArm 16.944067 29.223287 -74.003457
LeftForeArm 1.298846 -0.000000 23.707672
LeftHand -23.831444 0.000000 4.672289
LeftHandThumb1 -26.253704 0.000000 33.147579
RightShoulder -12.893288 7.001673 -28.135081
RightArm -13.897801 -15.786924 80.478421
RightForeArm -23.229508 -0.000000 37.453705
RightHand -1.450174 -0.000000 1.050245
RightHandThumb1 -24.326973 -0.000000 -32.862282
LeftUpLeg -16.577883 6.677256 -4.821147
LeftLeg 13.170994 -0.000000 -0.000000
LeftFoot -10.224026 13.166445 -26.238722
LeftToeBase 2.809130 -0.000000 -0.000000
RightUpLeg -16.462258 -2.990924 -1.121662
RightLeg 16.698122 -0.000000 -0.000000
RightFoot -17.813690 2.496378 -3.564097
RightToeBase -4.361194 -0.000000 0.000000
